<?xml version="1.0" encoding="UTF-8"?>
<!DOCTYPE svg PUBLIC "-//W3C//DTD SVG 1.1//EN" "http://www.w3.org/Graphics/SVG/1.1/DTD/svg11.dtd">
<svg width="160mm" height="90mm" viewBox="0 0 16000 9000" version="1.1" xmlns="http://www.w3.org/2000/svg" xmlns:xlink="http://www.w3.org/1999/xlink" stroke-width="28.222" stroke-linejoin="round" xml:space="preserve">
 <path fill="rgb(255,255,255)" stroke="none" d="M 8000,8999 L 0,8999 0,0 15999,0 15999,8999 8000,8999 Z"/>
 <path fill="none" stroke="rgb(179,179,179)" stroke-linejoin="round" d="M 7906,8172 L 1021,8172 1021,379 14791,379 14791,8172 7906,8172 Z"/>
 <path fill="none" stroke="rgb(179,179,179)" stroke-linejoin="round" d="M 14791,8171 L 1021,8171"/>
 <path fill="none" stroke="rgb(179,179,179)" stroke-linejoin="round" d="M 14791,7196 L 1021,7196"/>
 <path fill="none" stroke="rgb(179,179,179)" stroke-linejoin="round" d="M 14791,6222 L 1021,6222"/>
 <path fill="none" stroke="rgb(179,179,179)" stroke-linejoin="round" d="M 14791,5248 L 1021,5248"/>
 <path fill="none" stroke="rgb(179,179,179)" stroke-linejoin="round" d="M 14791,4275 L 1021,4275"/>
 <path fill="none" stroke="rgb(179,179,179)" stroke-linejoin="round" d="M 14791,3300 L 1021,3300"/>
 <path fill="none" stroke="rgb(179,179,179)" stroke-linejoin="round" d="M 14791,2326 L 1021,2326"/>
 <path fill="none" stroke="rgb(179,179,179)" stroke-linejoin="round" d="M 14791,1352 L 1021,1352"/>
 <path fill="none" stroke="rgb(179,179,179)" stroke-linejoin="round" d="M 14791,378 L 1021,378"/>
 <path fill="none" stroke="rgb(179,179,179)" stroke-linejoin="round" d="M 1021,8321 L 1021,8171"/>
 <path fill="none" stroke="rgb(179,179,179)" stroke-linejoin="round" d="M 1021,8321 L 1021,8171"/>
 <path fill="none" stroke="rgb(179,179,179)" stroke-linejoin="round" d="M 2988,8321 L 2988,8171"/>
 <path fill="none" stroke="rgb(179,179,179)" stroke-linejoin="round" d="M 2988,8321 L 2988,8171"/>
 <path fill="none" stroke="rgb(179,179,179)" stroke-linejoin="round" d="M 4955,8321 L 4955,8171"/>
 <path fill="none" stroke="rgb(179,179,179)" stroke-linejoin="round" d="M 4955,8321 L 4955,8171"/>
 <path fill="none" stroke="rgb(179,179,179)" stroke-linejoin="round" d="M 6922,8321 L 6922,8171"/>
 <path fill="none" stroke="rgb(179,179,179)" stroke-linejoin="round" d="M 6922,8321 L 6922,8171"/>
 <path fill="none" stroke="rgb(179,179,179)" stroke-linejoin="round" d="M 8889,8321 L 8889,8171"/>
 <path fill="none" stroke="rgb(179,179,179)" stroke-linejoin="round" d="M 8889,8321 L 8889,8171"/>
 <path fill="none" stroke="rgb(179,179,179)" stroke-linejoin="round" d="M 10856,8321 L 10856,8171"/>
 <path fill="none" stroke="rgb(179,179,179)" stroke-linejoin="round" d="M 10856,8321 L 10856,8171"/>
 <path fill="none" stroke="rgb(179,179,179)" stroke-linejoin="round" d="M 12823,8321 L 12823,8171"/>
 <path fill="none" stroke="rgb(179,179,179)" stroke-linejoin="round" d="M 12823,8321 L 12823,8171"/>
 <path fill="none" stroke="rgb(179,179,179)" stroke-linejoin="round" d="M 14791,8321 L 14791,8171"/>
 <path fill="none" stroke="rgb(179,179,179)" stroke-linejoin="round" d="M 14791,8321 L 14791,8171"/>
 <path fill="none" stroke="rgb(179,179,179)" stroke-linejoin="round" d="M 1021,8171 L 14791,8171"/>
 <path fill="none" stroke="rgb(179,179,179)" stroke-linejoin="round" d="M 871,8171 L 1021,8171"/>
 <path fill="none" stroke="rgb(179,179,179)" stroke-linejoin="round" d="M 871,8171 L 1021,8171"/>
 <path fill="none" stroke="rgb(179,179,179)" stroke-linejoin="round" d="M 871,7196 L 1021,7196"/>
 <path fill="none" stroke="rgb(179,179,179)" stroke-linejoin="round" d="M 871,7196 L 1021,7196"/>
 <path fill="none" stroke="rgb(179,179,179)" stroke-linejoin="round" d="M 871,6222 L 1021,6222"/>
 <path fill="none" stroke="rgb(179,179,179)" stroke-linejoin="round" d="M 871,6222 L 1021,6222"/>
 <path fill="none" stroke="rgb(179,179,179)" stroke-linejoin="round" d="M 871,5248 L 1021,5248"/>
 <path fill="none" stroke="rgb(179,179,179)" stroke-linejoin="round" d="M 871,5248 L 1021,5248"/>
 <path fill="none" stroke="rgb(179,179,179)" stroke-linejoin="round" d="M 871,4275 L 1021,4275"/>
 <path fill="none" stroke="rgb(179,179,179)" stroke-linejoin="round" d="M 871,4275 L 1021,4275"/>
 <path fill="none" stroke="rgb(179,179,179)" stroke-linejoin="round" d="M 871,3300 L 1021,3300"/>
 <path fill="none" stroke="rgb(179,179,179)" stroke-linejoin="round" d="M 871,3300 L 1021,3300"/>
 <path fill="none" stroke="rgb(179,179,179)" stroke-linejoin="round" d="M 871,2326 L 1021,2326"/>
 <path fill="none" stroke="rgb(179,179,179)" stroke-linejoin="round" d="M 871,2326 L 1021,2326"/>
 <path fill="none" stroke="rgb(179,179,179)" stroke-linejoin="round" d="M 871,1352 L 1021,1352"/>
 <path fill="none" stroke="rgb(179,179,179)" stroke-linejoin="round" d="M 871,1352 L 1021,1352"/>
 <path fill="none" stroke="rgb(179,179,179)" stroke-linejoin="round" d="M 871,378 L 1021,378"/>
 <path fill="none" stroke="rgb(179,179,179)" stroke-linejoin="round" d="M 871,378 L 1021,378"/>
 <path fill="none" stroke="rgb(179,179,179)" stroke-linejoin="round" d="M 1021,8171 L 1021,378"/>
 <path fill="none" stroke="rgb(0,69,134)" stroke-width="80" stroke-linejoin="round" d="M 1021,4275 L 2988,2959 4955,2667 6922,2229 8889,2034 10856,1839 12823,1644 14791,1254"/>
 <path fill="rgb(0,69,134)" stroke="none" d="M 896,4150 L 896,4400 1146,4400 1146,4150 896,4150 Z"/>
 <path fill="none" stroke="rgb(0,69,134)" stroke-linejoin="round" d="M 896,4150 L 896,4400 1146,4400 1146,4150 896,4150 Z"/>
 <path fill="rgb(0,69,134)" stroke="none" d="M 2863,2834 L 2863,3084 3113,3084 3113,2834 2863,2834 Z"/>
 <path fill="none" stroke="rgb(0,69,134)" stroke-linejoin="round" d="M 2863,2834 L 2863,3084 3113,3084 3113,2834 2863,2834 Z"/>
 <path fill="rgb(0,69,134)" stroke="none" d="M 4830,2542 L 4830,2792 5080,2792 5080,2542 4830,2542 Z"/>
 <path fill="none" stroke="rgb(0,69,134)" stroke-linejoin="round" d="M 4830,2542 L 4830,2792 5080,2792 5080,2542 4830,2542 Z"/>
 <path fill="rgb(0,69,134)" stroke="none" d="M 6797,2104 L 6797,2354 7047,2354 7047,2104 6797,2104 Z"/>
 <path fill="none" stroke="rgb(0,69,134)" stroke-linejoin="round" d="M 6797,2104 L 6797,2354 7047,2354 7047,2104 6797,2104 Z"/>
 <path fill="rgb(0,69,134)" stroke="none" d="M 8764,1909 L 8764,2159 9014,2159 9014,1909 8764,1909 Z"/>
 <path fill="none" stroke="rgb(0,69,134)" stroke-linejoin="round" d="M 8764,1909 L 8764,2159 9014,2159 9014,1909 8764,1909 Z"/>
 <path fill="rgb(0,69,134)" stroke="none" d="M 10731,1714 L 10731,1964 10981,1964 10981,1714 10731,1714 Z"/>
 <path fill="none" stroke="rgb(0,69,134)" stroke-linejoin="round" d="M 10731,1714 L 10731,1964 10981,1964 10981,1714 10731,1714 Z"/>
 <path fill="rgb(0,69,134)" stroke="none" d="M 12698,1519 L 12698,1769 12948,1769 12948,1519 12698,1519 Z"/>
 <path fill="none" stroke="rgb(0,69,134)" stroke-linejoin="round" d="M 12698,1519 L 12698,1769 12948,1769 12948,1519 12698,1519 Z"/>
 <path fill="rgb(0,69,134)" stroke="none" d="M 14666,1129 L 14666,1379 14916,1379 14916,1129 14666,1129 Z"/>
 <path fill="none" stroke="rgb(0,69,134)" stroke-linejoin="round" d="M 14666,1129 L 14666,1379 14916,1379 14916,1129 14666,1129 Z"/>
 <text class="TextShape"><tspan class="TextParagraph" font-family="DejaVu Sans, sans-serif" font-size="353px" font-weight="400"><tspan class="TextPosition" x="320" y="8739"><tspan fill="rgb(0,0,0)" stroke="none">2016-11</tspan></tspan></tspan></text>
 <text class="TextShape"><tspan class="TextParagraph" font-family="DejaVu Sans, sans-serif" font-size="353px" font-weight="400"><tspan class="TextPosition" x="2287" y="8739"><tspan fill="rgb(0,0,0)" stroke="none">2017-10</tspan></tspan></tspan></text>
 <text class="TextShape"><tspan class="TextParagraph" font-family="DejaVu Sans, sans-serif" font-size="353px" font-weight="400"><tspan class="TextPosition" x="4254" y="8739"><tspan fill="rgb(0,0,0)" stroke="none">2018-02</tspan></tspan></tspan></text>
 <text class="TextShape"><tspan class="TextParagraph" font-family="DejaVu Sans, sans-serif" font-size="353px" font-weight="400"><tspan class="TextPosition" x="6221" y="8739"><tspan fill="rgb(0,0,0)" stroke="none">2018-07</tspan></tspan></tspan></text>
 <text class="TextShape"><tspan class="TextParagraph" font-family="DejaVu Sans, sans-serif" font-size="353px" font-weight="400"><tspan class="TextPosition" x="8189" y="8739"><tspan fill="rgb(0,0,0)" stroke="none">2018-11</tspan></tspan></tspan></text>
 <text class="TextShape"><tspan class="TextParagraph" font-family="DejaVu Sans, sans-serif" font-size="353px" font-weight="400"><tspan class="TextPosition" x="10156" y="8739"><tspan fill="rgb(0,0,0)" stroke="none">2019-01</tspan></tspan></tspan></text>
 <text class="TextShape"><tspan class="TextParagraph" font-family="DejaVu Sans, sans-serif" font-size="353px" font-weight="400"><tspan class="TextPosition" x="12123" y="8739"><tspan fill="rgb(0,0,0)" stroke="none">2019-06</tspan></tspan></tspan></text>
 <text class="TextShape"><tspan class="TextParagraph" font-family="DejaVu Sans, sans-serif" font-size="353px" font-weight="400"><tspan class="TextPosition" x="14091" y="8739"><tspan fill="rgb(0,0,0)" stroke="none">2019-10</tspan></tspan></tspan></text>
 <text class="TextShape"><tspan class="TextParagraph" font-family="DejaVu Sans, sans-serif" font-size="353px" font-weight="400"><tspan class="TextPosition" x="559" y="8292"><tspan fill="rgb(0,0,0)" stroke="none">0</tspan></tspan></tspan></text>
 <text class="TextShape"><tspan class="TextParagraph" font-family="DejaVu Sans, sans-serif" font-size="353px" font-weight="400"><tspan class="TextPosition" x="348" y="7317"><tspan fill="rgb(0,0,0)" stroke="none">20</tspan></tspan></tspan></text>
 <text class="TextShape"><tspan class="TextParagraph" font-family="DejaVu Sans, sans-serif" font-size="353px" font-weight="400"><tspan class="TextPosition" x="348" y="6343"><tspan fill="rgb(0,0,0)" stroke="none">40</tspan></tspan></tspan></text>
 <text class="TextShape"><tspan class="TextParagraph" font-family="DejaVu Sans, sans-serif" font-size="353px" font-weight="400"><tspan class="TextPosition" x="348" y="5369"><tspan fill="rgb(0,0,0)" stroke="none">60</tspan></tspan></tspan></text>
 <text class="TextShape"><tspan class="TextParagraph" font-family="DejaVu Sans, sans-serif" font-size="353px" font-weight="400"><tspan class="TextPosition" x="348" y="4395"><tspan fill="rgb(0,0,0)" stroke="none">80</tspan></tspan></tspan></text>
 <text class="TextShape"><tspan class="TextParagraph" font-family="DejaVu Sans, sans-serif" font-size="353px" font-weight="400"><tspan class="TextPosition" x="136" y="3420"><tspan fill="rgb(0,0,0)" stroke="none">100</tspan></tspan></tspan></text>
 <text class="TextShape"><tspan class="TextParagraph" font-family="DejaVu Sans, sans-serif" font-size="353px" font-weight="400"><tspan class="TextPosition" x="136" y="2446"><tspan fill="rgb(0,0,0)" stroke="none">120</tspan></tspan></tspan></text>
 <text class="TextShape"><tspan class="TextParagraph" font-family="DejaVu Sans, sans-serif" font-size="353px" font-weight="400"><tspan class="TextPosition" x="136" y="1472"><tspan fill="rgb(0,0,0)" stroke="none">140</tspan></tspan></tspan></text>
 <text class="TextShape"><tspan class="TextParagraph" font-family="DejaVu Sans, sans-serif" font-size="353px" font-weight="400"><tspan class="TextPosition" x="136" y="498"><tspan fill="rgb(0,0,0)" stroke="none">160</tspan></tspan></tspan></text>
</svg>